# xmcd
#
# Track frame offsets: 
#        150
#        11093
#        24620
#        44181
#        68730
#        78954
#        90737
#        101126
#        112601
#        128049
#        142774
#        169360
#        185918
#        202617
#        230013
#        242733
#        255977
#        271174
#
# Disc length: 3743 seconds
#
# Revision: 1
# Processed by: cddbd v1.5.2PL0 Copyright (c) Steve Scherf et al.
# Submitted via: ExactAudioCopy v0.99pb4
#
DISCID=ef0e9d12
DTITLE=Бараби Блус Бенд - 18 карата кал
DYEAR=1999
DGENRE=Blues
TTITLE0=Тъжно и меланхолично
TTITLE1=Бараба буги-вуги
TTITLE2=Коньовишки джентълмен
TTITLE3=Outsider Blues
TTITLE4=Нови сини дънки
TTITLE5=Кече
TTITLE6=Булевард "Димитър Петков"
TTITLE7=Дългата Пена
TTITLE8=Проект
TTITLE9=2 and 200 блус
TTITLE10=Неочакван дъжд
TTITLE11=Семеен порок
TTITLE12=Не знам, не знам
TTITLE13=Казармен блус
TTITLE14=Стопаджийски блус
TTITLE15=Калифорнийски сън
TTITLE16=M. M. Blues
TTITLE17=Мокро
EXTD=YEAR: 1999 ID3G: 0
EXTT0=
EXTT1=
EXTT2=
EXTT3=
EXTT4=
EXTT5=
EXTT6=
EXTT7=
EXTT8=
EXTT9=
EXTT10=
EXTT11=
EXTT12=
EXTT13=
EXTT14=
EXTT15=
EXTT16=
EXTT17=
PLAYORDER=
